<svg xmlns="http://www.w3.org/2000/svg" id="Component_49_1" width="45" height="45" viewBox="0 0 45 45">
    <defs>
        <style>
            .cls-2{fill:#040931}
        </style>
    </defs>
    <circle id="Ellipse_329" cx="22.5" cy="22.5" r="22.5" fill="#f1f1f5"/>
    <g id="Component_24_57" transform="translate(14 12)">
        <path id="Path_734" d="M192.082 173.214v-6.235c0-3.05-.657-5.4-4.222-5.4a3.7 3.7 0 0 0-3.334 1.832h-.05v-1.548H181.1v11.349h3.52v-5.62c0-1.48.281-2.911 2.113-2.911 1.805 0 1.832 1.689 1.832 3.005v5.526z" class="cls-2" transform="translate(-175.086 -156.214)"/>
        <path id="Path_735" d="M8.448 170.176h3.525v11.349H8.448z" class="cls-2" transform="translate(-8.167 -164.526)"/>
        <path id="Path_736" d="M2.041 0a2.051 2.051 0 1 0 2.042 2.041A2.042 2.042 0 0 0 2.041 0z" class="cls-2"/>
    </g>
</svg>
