<svg xmlns="http://www.w3.org/2000/svg" id="Component_15_1" width="12.974" height="12.974" viewBox="0 0 12.974 12.974">
    <defs>
        <style>
            .cls-1{fill:#030c0f}
        </style>
    </defs>
    <g id="Group_139">
        <g id="Group_138">
            <path id="Path_731" d="M8.92 0H4.054A4.055 4.055 0 0 0 0 4.054V8.92a4.055 4.055 0 0 0 4.054 4.054H8.92a4.055 4.055 0 0 0 4.054-4.054V4.054A4.055 4.055 0 0 0 8.92 0zm2.838 8.92a2.841 2.841 0 0 1-2.838 2.838H4.054A2.841 2.841 0 0 1 1.216 8.92V4.054a2.841 2.841 0 0 1 2.838-2.838H8.92a2.841 2.841 0 0 1 2.838 2.838z" class="cls-1"/>
        </g>
    </g>
    <g id="Group_141" transform="translate(3.244 3.244)">
        <g id="Group_140">
            <path id="Path_732" d="M131.243 128a3.243 3.243 0 1 0 3.243 3.243 3.244 3.244 0 0 0-3.243-3.243zm0 5.271a2.027 2.027 0 1 1 2.027-2.027 2.03 2.03 0 0 1-2.027 2.027z" class="cls-1" transform="translate(-128 -128)"/>
        </g>
    </g>
    <g id="Group_143" transform="translate(9.542 2.568)">
        <g id="Group_142">
            <circle id="Ellipse_308" cx=".432" cy=".432" r=".432" class="cls-1"/>
        </g>
    </g>
</svg>
