<svg xmlns="http://www.w3.org/2000/svg" width="18" height="20" viewBox="0 0 18 20"><g><g><path d="M17.817 9.186a8.946 8.946 0 0 0-1.355-3.219 9.033 9.033 0 0 0-2.43-2.43 8.946 8.946 0 0 0-5.057-1.535V0L5 3l3.975 3V4.002a6.952 6.952 0 0 1 3.937 1.193A7.009 7.009 0 0 1 16 11c0 .936-.187 1.862-.55 2.725a7.065 7.065 0 0 1-.644 1.188 7.03 7.03 0 0 1-4.394 2.946 7.13 7.13 0 0 1-2.822 0A6.994 6.994 0 0 1 2 11h-.006c.007-.445.042-.891.134-1.336A6.966 6.966 0 0 1 4.045 6.05L2.63 4.636A9.008 9.008 0 0 0 0 11a9.02 9.02 0 0 0 1.539 5.034 9.104 9.104 0 0 0 2.428 2.428A8.957 8.957 0 0 0 9 20c.609 0 1.217-.061 1.814-.183a9.02 9.02 0 0 0 4.549-2.454A8.95 8.95 0 0 0 18 11c0-.609-.061-1.217-.183-1.814"/></g></g></svg>