<svg xmlns="http://www.w3.org/2000/svg" width="49" height="49" viewBox="0 0 49 49">
    <circle cx="24.5" cy="24.5" r="24.5" fill="#f1f1f5"/>
    <g>
        <g>
            <path fill="#040931" d="M19.154 49.894a8.013 8.013 0 0 1-2.263.638 4 4 0 0 0 1.728-2.232 7.718 7.718 0 0 1-2.49.977A3.886 3.886 0 0 0 13.26 48a3.982 3.982 0 0 0-3.924 4.038 4.27 4.27 0 0 0 .091.921 11.017 11.017 0 0 1-8.094-4.223A4.152 4.152 0 0 0 .8 50.777a4.074 4.074 0 0 0 1.74 3.355 3.8 3.8 0 0 1-1.774-.5v.044a4.03 4.03 0 0 0 3.146 3.967 3.818 3.818 0 0 1-1.03.133 3.38 3.38 0 0 1-.743-.069 3.98 3.98 0 0 0 3.669 2.812A7.754 7.754 0 0 1 .94 62.244a7.157 7.157 0 0 1-.94-.056A10.836 10.836 0 0 0 6.024 64C13.25 64 17.2 57.846 17.2 52.512c0-.178-.006-.351-.014-.522a7.959 7.959 0 0 0 1.968-2.096z" transform="translate(15 17) translate(0 -48)"/>
        </g>
    </g>
</svg>
