<svg xmlns="http://www.w3.org/2000/svg" width="23.8" height="16.664" viewBox="0 0 23.8 16.664">
    <path fill="#040931" d="M44.289 113.75a2.982 2.982 0 0 0-2.1-2.1c-1.862-.51-9.312-.51-9.312-.51s-7.45 0-9.312.49a3.042 3.042 0 0 0-2.1 2.117 33.674 33.674 0 0 0 0 11.449 2.982 2.982 0 0 0 2.1 2.1c1.882.51 9.312.51 9.312.51s7.45 0 9.312-.49a2.982 2.982 0 0 0 2.1-2.1 31.428 31.428 0 0 0 .49-5.724 29.826 29.826 0 0 0-.49-5.742zm-13.782 9.292v-7.136l6.195 3.568z" transform="translate(-20.979 -111.143)"/>
</svg>
