<svg xmlns="http://www.w3.org/2000/svg" width="115" height="36" viewBox="0 0 115 36"><g><g><g><g><g><path fill="#5d5d5c" d="M45.243 3.271l-3.63 23.57h-6.39l3.628-23.57zM115 20.99l-.9 5.851h-11.112l3.629-23.57h6.423l-2.73 17.719zM103.1 3.27l-.867 5.719h-4.945L96.806 12h4.464l-.835 5.52h-4.464l-.513 3.238h4.944l-.93 6.083H88.133l3.63-23.57zM88.525 9.884c0 2.908-.802 5.156-2.41 6.742-1.604 1.588-3.918 2.38-6.935 2.38-.086 0-.226-.01-.417-.033h-.451l-1.188 7.868h-6.392l3.63-23.57h5.491c3.02 0 5.22.508 6.602 1.52 1.38 1.015 2.07 2.712 2.07 5.093zm-6.07.495c0-1.255-.728-1.884-2.183-1.884h-.322l-.803 5.224c.17.02.375.032.61.032 1.8 0 2.699-1.124 2.699-3.372zM69.432 3.271l-1.96 23.57h-5.523l2.086-17.453-5.427 17.453H54.27l-.255-17.488-3.245 17.488h-5.492l5.266-23.57h7.485l.063 12.43L61.98 3.27h7.452"/></g><g><path fill="#fff" d="M28.206 14.725c0-7.589-6.154-13.741-13.742-13.741C6.877.984.722 6.706.722 14.294c0 7.586 6.155 14.173 13.742 14.173 7.588 0 13.742-6.155 13.742-13.742"/></g><g><path fill="#d8001a" d="M12.232 9.511a1.004 1.004 0 1 1 2.008 0 1.004 1.004 0 0 1-2.008 0zm0 2.731a1.004 1.004 0 1 1 2.009-.002 1.004 1.004 0 0 1-2.01.002zm0 2.73a1.005 1.005 0 1 1 2.01 0 1.005 1.005 0 0 1-2.01 0zm0 2.692a1.003 1.003 0 1 1 2.008 0 1.004 1.004 0 0 1-2.008 0zm0 2.73a1.004 1.004 0 1 1 2.008-.003 1.004 1.004 0 0 1-2.008.003zm0 2.69a1.004 1.004 0 1 1 2.008 0 1.004 1.004 0 0 1-2.008 0zm0 2.692a1.004 1.004 0 1 1 2.008 0 1.004 1.004 0 0 1-2.008 0zm2-21.7a1.004 1.004 0 1 1-2.01 0 1.004 1.004 0 0 1 2.01 0zM9.793 6.783a1.005 1.005 0 1 1 2.01-.002 1.005 1.005 0 0 1-2.01.002zm0 2.728a1.005 1.005 0 1 1 2.01.001 1.005 1.005 0 0 1-2.01 0zm0 2.731a1.005 1.005 0 1 1 2.01 0 1.005 1.005 0 0 1-2.01 0zm0 2.73a1.006 1.006 0 0 1 2.01 0c0 .553-.45 1.005-1.005 1.005a1.006 1.006 0 0 1-1.005-1.005zm0 10.603a1.004 1.004 0 1 1 2.008 0 1.004 1.004 0 0 1-2.008 0zm2-21.5a1.004 1.004 0 1 1 0 0zM7.359 6.783a1.005 1.005 0 1 1 2.01 0 1.005 1.005 0 0 1-2.01 0zm0 2.73a1.005 1.005 0 1 1 2.01 0 1.005 1.005 0 0 1-2.01 0zm0 2.73a1.005 1.005 0 1 1 2.01 0 1.005 1.005 0 0 1-2.01 0zm0 2.73a1.006 1.006 0 1 1 2.011.002 1.006 1.006 0 0 1-2.011-.002zm0 2.651a1.005 1.005 0 1 1 2.01.001 1.005 1.005 0 0 1-2.01 0zM4.922 6.783A1.004 1.004 0 1 1 6.93 6.78a1.004 1.004 0 0 1-2.01.001zm0 2.728a1.005 1.005 0 1 1 2.01 0 1.005 1.005 0 0 1-2.01 0zm0 2.731a1.005 1.005 0 1 1 2.01 0 1.005 1.005 0 0 1-2.01 0zm0 2.73a1.005 1.005 0 1 1 2.01.001 1.005 1.005 0 0 1-2.01-.001zm0 2.651a1.005 1.005 0 1 1 2.01 0 1.005 1.005 0 0 1-2.01 0zm-2.37-5.38a1.005 1.005 0 1 1 2.01-.001 1.005 1.005 0 0 1-2.01 0zm0 2.729a1.006 1.006 0 1 1 2.01.002 1.006 1.006 0 0 1-2.01-.002zm14.092 10.804c0 .555-.45 1.004-1.005 1.004a1.004 1.004 0 1 1 0-2.009c.554 0 1.005.45 1.005 1.005zm0-2.691a1.005 1.005 0 1 1-2.01-.001 1.005 1.005 0 0 1 2.01 0zm0-2.69a1.005 1.005 0 1 1-2.01-.003 1.005 1.005 0 0 1 2.01.002zm0-2.731a1.004 1.004 0 1 1-2.009-.001 1.004 1.004 0 0 1 2.009 0zm0-2.692a1.006 1.006 0 0 1-2.011 0 1.006 1.006 0 0 1 2.01 0zm0-2.73a1.005 1.005 0 1 1-2.01-.002 1.005 1.005 0 0 1 2.01.002zm0-2.73a1.006 1.006 0 1 1-2.012-.002 1.006 1.006 0 0 1 2.012.001zm0-2.73a1.005 1.005 0 1 1-2.01-.002 1.005 1.005 0 0 1 2.01.002zm.025-2.706a1.005 1.005 0 1 1-2.011-.002 1.005 1.005 0 0 1 2.01.002zm2.41 21.5a1.005 1.005 0 1 1-2.01 0 1.005 1.005 0 0 1 2.01 0zm0-10.604a1.006 1.006 0 1 1-1.005-1.005c.555 0 1.005.451 1.005 1.005zm0-2.73a1.005 1.005 0 1 1-2.01-.002 1.005 1.005 0 0 1 2.01.002zm0-2.73a1.006 1.006 0 1 1-2.011-.002 1.006 1.006 0 0 1 2.011.001zm0-2.73a1.005 1.005 0 1 1-2.01-.002 1.005 1.005 0 0 1 2.01.002zm.026-2.706a1.005 1.005 0 1 1-2.01-.002 1.005 1.005 0 0 1 2.01.002zm2.41 13.547a1.004 1.004 0 1 1-2.008.003 1.004 1.004 0 0 1 2.008-.003zm0-2.651a1.006 1.006 0 0 1-2.009 0 1.006 1.006 0 0 1 2.01 0zm0-2.73a1.004 1.004 0 1 1-2.008 0 1.004 1.004 0 0 1 2.008 0zm0-2.73a1.005 1.005 0 1 1-2.01 0 1.005 1.005 0 0 1 2.01 0zm0-2.73a1.004 1.004 0 1 1-2.008 0 1.004 1.004 0 0 1 2.008 0zm2.436 10.841a1.004 1.004 0 1 1-2.008.003 1.004 1.004 0 0 1 2.008-.003zm0-2.651c0 .553-.45 1.005-1.002 1.005a1.006 1.006 0 1 1 0-2.01c.552 0 1.002.451 1.002 1.005zm0-2.73a1.004 1.004 0 1 1-2.009 0 1.004 1.004 0 0 1 2.009 0zm0-2.73a1.005 1.005 0 1 1-2.01 0 1.005 1.005 0 0 1 2.01 0zm0-2.73a1.004 1.004 0 1 1-2.009 0 1.004 1.004 0 0 1 2.009 0zm2.412 8.19c0 .553-.45 1.005-1.004 1.005a1.006 1.006 0 0 1 0-2.01c.555 0 1.004.451 1.004 1.005zm0-2.73a1.004 1.004 0 1 1-2.008 0 1.004 1.004 0 0 1 2.008 0zM13.235 7.786a1.004 1.004 0 1 1 .001-2.008 1.004 1.004 0 0 1 0 2.008m15.693 6.938C28.93 6.74 22.452.262 14.463.262 6.477.262 0 6.284 0 14.272 0 22.256 6.477 29.19 14.463 29.19c7.989 0 14.466-6.478 14.466-14.467"/></g></g><g><path fill="#5d5d5c" d="M84.634 32.42h1.88v3.345c-.207.037-1.467.235-2.215.235-2.084 0-2.635-1.28-2.635-3.483 0-2.262.57-3.52 2.617-3.52 1.031 0 2.232.255 2.232.255l-.03.63s-1.22-.207-2.115-.207c-1.572 0-1.917.915-1.917 2.842 0 1.889.335 2.814 1.908 2.814a9.19 9.19 0 0 0 1.407-.138v-2.095h-1.132z"/></g><g><path fill="#5d5d5c" d="M89.49 33.294v2.607h-.758v-6.806h2.519c1.426 0 2.174.63 2.174 2.066 0 1.003-.394 1.7-1.25 1.976l1.309 2.764h-.836l-1.23-2.607zm1.76-3.53h-1.76v2.862h1.77c1.024 0 1.388-.61 1.388-1.465 0-.935-.443-1.397-1.397-1.397"/></g><g><path fill="#5d5d5c" d="M99.844 32.527c0-1.838-.353-2.862-1.907-2.862-1.564 0-1.91 1.014-1.91 2.862 0 1.86.335 2.804 1.91 2.804 1.583 0 1.907-.886 1.907-2.804m-4.592 0c0-2.242.58-3.53 2.685-3.53 2.104 0 2.694 1.268 2.694 3.53 0 2.342-.58 3.473-2.694 3.473-2.116 0-2.685-1.19-2.685-3.473"/></g><g><path fill="#5d5d5c" d="M105.054 35.33c1.062 0 1.662-.413 1.662-1.474v-4.76h.747v4.74c0 1.553-.856 2.163-2.41 2.163-1.495 0-2.35-.6-2.35-2.163v-4.74h.757v4.76c0 1.061.59 1.474 1.594 1.474"/></g><g><path fill="#5d5d5c" d="M110.578 32.94v-3.176h1.722c.992 0 1.407.482 1.407 1.525 0 1.052-.415 1.652-1.407 1.652zm1.732.67c1.484 0 2.173-.836 2.173-2.321 0-1.476-.69-2.194-2.173-2.194h-2.49v6.806h.758V33.61z"/></g></g></g></g></svg>